#!OML:ASF H:\BreakDance\Project 1\Capture day 1\Session 1\Male.ASF
:FULLY-SPECIFIED
:DEGREES
279
root 28.1403 15.3572 0.506187 5.5112 -20.8579 6.87185
lowerback 2.00229 -4.3289 1.44593
upperback 1.66617 -5.75134 0.814572
thorax 0.532234 -2.86684 0.117571
lowerneck 4.47343 -15.8644 -10.1677
upperneck -12.0512 -21.2616 10.0504
head -2.16428 -10.7084 4.83205
rclavicle 1.21259e-014 -1.74931e-014
rhumerus -17.6693 19.5605 -89.2531
rradius 49.2519
rwrist -1.99942
rhand -34.967 -9.83642
rfingers 7.12502
rthumb -8.11294 -39.6607
lclavicle 1.21259e-014 -1.74931e-014
lhumerus -0.623031 -39.3432 97.9898
lradius 45.2505
lwrist 13.4946
lhand -22.1134 -38.0722
lfingers 7.12502
lthumb 4.29925 -8.13588
rfemur -42.2076 -4.10036 26.1711
rtibia 63.9281
rfoot -25.966 -4.70745
rtoes 13.3432
lfemur -15.7564 -5.66642 1.83771
ltibia 47.5271
lfoot -15.2869 8.57019
ltoes -34.2439
280
root 28.225 15.3042 0.471976 5.40097 -20.301 6.56064
lowerback 2.01288 -4.30842 1.93507
upperback 1.65438 -5.71669 0.927589
thorax 0.478821 -2.84603 -0.0343996
lowerneck 4.56 -16.0619 -10.0436
upperneck -12.5097 -21.5269 9.98324
head -2.31235 -10.8384 4.8287
rclavicle 3.04141e-014 -1.51076e-014
rhumerus -18.1937 18.9139 -89.1275
rradius 47.3456
rwrist -0.895784
rhand -34.2739 -9.77059
rfingers 7.12502
rthumb -7.44393 -39.6196
lclavicle 3.04141e-014 -1.51076e-014
lhumerus -1.79761 -38.732 98.727
lradius 44.5599
lwrist 12.4051
lhand -22.2527 -37.5818
lfingers 7.12502
lthumb 4.16479 -7.64273
rfemur -42.8881 -4.96235 26.3162
rtibia 65.003
rfoot -26.0398 -4.19453
rtoes 14.7172
lfemur -14.1479 -5.72073 3.18209
ltibia 46.9718
lfoot -13.9253 8.44881
ltoes -34.0488
281
root 28.3021 15.2635 0.437286 5.27925 -19.7402 6.49851
lowerback 1.91382 -4.36117 2.05065
upperback 1.63691 -5.78831 1.05287
thorax 0.516837 -2.8812 0.0234157
lowerneck 4.63628 -16.1863 -9.96029
upperneck -12.9757 -21.698 9.91355
head -2.46642 -10.9193 4.83355
rclavicle -8.42847e-014 3.97569e-015
rhumerus -18.6929 18.5336 -88.9864
rradius 45.2929
rwrist 0.0807515
rhand -33.4483 -9.73744
rfingers 7.12502
rthumb -6.64703 -39.6131
lclavicle -8.42847e-014 3.97569e-015
lhumerus -3.05287 -37.9388 99.3685
lradius 43.8469
lwrist 11.3813
lhand -22.5372 -37.0833
lfingers 7.12502
lthumb 3.89002 -7.13902
rfemur -43.5525 -5.86997 26.25
rtibia 65.9041
rfoot -26.1234 -3.75444
rtoes 16.1396
lfemur -12.6459 -5.85103 4.1911
ltibia 46.341
lfoot -12.4652 8.18346
ltoes -33.7915
282
root 28.3723 15.2344 0.401255 5.13627 -19.187 6.698
lowerback 1.73645 -4.47814 1.80245
upperback 1.6087 -5.95258 1.17223
thorax 0.622206 -2.9656 0.268887
lowerneck 4.70335 -16.2421 -9.93369
upperneck -13.4151 -21.7811 9.85663
head -2.61196 -10.9546 4.84933
rclavicle -3.08116e-014 6.36111e-015
rhumerus -19.1758 18.4012 -88.8379
rradius 43.1255
rwrist 0.954755
rhand -32.4592 -9.77992
rfingers 7.12502
rthumb -5.69209 -39.6835
lclavicle -3.08116e-014 6.36111e-015
lhumerus -4.34442 -36.9771 99.9103
lradius 43.0353
lwrist 10.4877
lhand -22.9643 -36.5452
lfingers 7.12502
lthumb 3.47759 -6.5938
rfemur -44.1548 -6.78021 25.9419
rtibia 66.5727
rfoot -26.2291 -3.45293
rtoes 17.0248
lfemur -11.2435 -6.04572 4.82707
ltibia 45.6485
lfoot -10.905 7.83054
ltoes -33.6327
283
root 28.4379 15.2165 0.363099 4.97831 -18.6727 7.08342
lowerback 1.51277 -4.59831 1.34143
upperback 1.58279 -6.12338 1.22612
thorax 0.77278 -3.05507 0.558586
lowerneck 4.76876 -16.2885 -9.81096
upperneck -13.8203 -21.845 9.79412
head -2.75953 -10.984 4.85175
rclavicle -5.56597e-015 7.95139e-015
rhumerus -19.6762 18.2876 -88.731
rradius 40.8979
rwrist 1.77817
rhand -31.319 -9.91412
rfingers 7.12502
rthumb -4.59115 -39.8444
lclavicle -5.56597e-015 7.95139e-015
lhumerus -5.65496 -36.0766 100.317
lradius 42.0912
lwrist 9.76975
lhand -23.544 -35.8872
lfingers 7.12502
lthumb 2.91777 -5.92746
rfemur -44.6437 -7.59785 25.4388
rtibia 66.9721
rfoot -26.3553 -3.29599
rtoes 17.2881
lfemur -9.90189 -6.27895 5.14989
ltibia 44.9095
lfoot -9.27224 7.43022
ltoes -33.6985
284
root 28.5014 15.2101 0.322275 4.81522 -18.2361 7.51952
lowerback 1.29896 -4.69407 0.856334
upperback 1.56009 -6.25911 1.21155
thorax 0.918799 -3.1274 0.790944
lowerneck 4.86238 -16.346 -9.57209
upperneck -14.1834 -21.9161 9.73474
head -2.91012 -11.0225 4.84231
rclavicle -1.66979e-014 -3.81667e-014
rhumerus -20.2582 18.0688 -88.697
rradius 38.6771
rwrist 2.58417
rhand -30.1297 -10.1165
rfingers 7.12502
rthumb -3.44274 -40.0684
lclavicle -1.66979e-014 -3.81667e-014
lhumerus -6.98261 -35.2624 100.588
lradius 40.9557
lwrist 9.25717
lhand -24.0888 -35.1019
lfingers 7.12502
lthumb 2.39161 -5.13558
rfemur -44.9687 -8.2193 24.8523
rtibia 67.0902
rfoot -26.4802 -3.26915
rtoes 17.1717
lfemur -8.57049 -6.51776 5.28623
ltibia 44.1559
lfoot -7.62059 6.9927
ltoes -33.9607
285
root 28.5657 15.2157 0.278329 4.67148 -17.9017 7.87011
lowerback 1.14573 -4.77317 0.493248
upperback 1.54205 -6.36881 1.18085
thorax 1.02259 -3.18581 0.944676
lowerneck 4.94914 -16.4034 -9.29753
upperneck -14.4801 -21.9806 9.69751
head -3.04138 -11.0614 4.83009
rclavicle 5.78463e-014 -9.54166e-015
rhumerus -20.9369 17.7213 -88.7136
rradius 36.5256
rwrist 3.42135
rhand -28.4585 -10.1026
rfingers 7.12502
rthumb -1.82875 -40.0745
lclavicle 5.78463e-014 -9.54166e-015
lhumerus -8.28737 -34.4253 100.729
lradius 39.609
lwrist 8.90139
lhand -24.522 -34.1879
lfingers 7.12502
lthumb 1.97318 -4.21731
rfemur -45.1182 -8.5771 24.313
rtibia 66.9354
rfoot -26.5527 -3.38683
rtoes 16.8705
lfemur -7.23079 -6.72633 5.3757
ltibia 43.4243
lfoot -6.01467 6.52046
ltoes -34.3086
